<?xml version="1.0" encoding="UTF-8"?>
<!DOCTYPE svg PUBLIC "-//W3C//DTD SVG 1.1//EN" "http://www.w3.org/Graphics/SVG/1.1/DTD/svg11.dtd">
<!-- Creator: CorelDRAW 2021 (64 Bit) -->
<svg xmlns="http://www.w3.org/2000/svg" xml:space="preserve" width="220px" height="32px" version="1.1" style="shape-rendering:geometricPrecision; text-rendering:geometricPrecision; image-rendering:optimizeQuality; fill-rule:evenodd; clip-rule:evenodd"
viewBox="0 0 2.2 0.32"
 xmlns:xlink="http://www.w3.org/1999/xlink"
 xmlns:xodm="http://www.corel.com/coreldraw/odm/2003">
 <defs>
  <style type="text/css">
   <![CDATA[
    .fil2 {fill:#FEFEFE}
    .fil0 {fill:#00B59A;fill-rule:nonzero}
    .fil1 {fill:#047D6B;fill-rule:nonzero}
   ]]>
  </style>
 </defs>
 <g id="Camada_x0020_1">
  <metadata id="CorelCorpID_0Corel-Layer"/>
  <path class="fil0" d="M0.23 0.32l0 0c-0.01,0 -0.01,-0.01 -0.02,-0.01l0 0c0,0 0,0 0,0 -0.01,0 -0.02,-0.01 -0.02,-0.01 -0.01,-0.01 -0.01,-0.02 -0.01,-0.03 0,0 0,0 0,-0.01 0,0 0,0 0,0l0 -0.1 0.05 0c0,0 0,0 0,0 0,0 0,0 0,0 0,0 0,0 0,0l0 0.01c0,0 -0.01,0.01 -0.01,0.02l0 0c0,0.01 0.01,0.02 0.01,0.02 0.01,0.01 0.01,0.01 0.02,0.01 0.02,0 0.03,-0.01 0.03,-0.03l0 0c0,-0.01 0,-0.02 -0.01,-0.02l0 -0.01c0,0 0,0 0,0 0,0 0,0 0,0 0,0 0,0 0,0l0.06 0c0,0 0,0 0,0l0 0c0,0 0,0 0,0 0,0 0,0.01 0.01,0.01 0,0 0,0 0,0 0,0 0,0 0,0 0,0 0,0 0,0 0,0 0,0 0,0 0,0 0,0 0,0 0,0 0,0 0,0 0,0 0,0 0,0 0,0 0,0 0,0 0,0 0,0.01 0,0.02 0,0.01 -0.01,0.03 -0.02,0.03 0,0 0,0.01 0,0.01 0,0 0,0 0,0.01 0,0 0,0 0,0.01 -0.01,0.01 -0.02,0.02 -0.04,0.02 0,0 0,0 0,0 0,0.01 0,0.01 0,0.01 -0.01,0.01 -0.02,0.02 -0.03,0.03 0,0 -0.01,0.01 -0.02,0.01z"/>
  <path class="fil0" d="M0.01 0.15c0,0 0,-0.01 0,-0.01 0,-0.02 0.01,-0.03 0.03,-0.04 0,-0.01 0.01,-0.02 0.01,-0.02 0,-0.01 0,-0.01 0,-0.02 0,-0.01 0.02,-0.03 0.03,-0.03 0,0 0,0 0,0 0.01,-0.02 0.02,-0.03 0.04,-0.03 0,0 0,0 0,0 0.02,0 0.04,0.02 0.04,0.04l0 0.11c0,0 0,0 0,0l-0.05 0c0,0 0,0 0,0 0,0 0,0 0,0 0,0 0,0 0,0l0 0c0,-0.01 0.01,-0.02 0.01,-0.02l0 -0.01c0,0 -0.01,-0.01 -0.01,-0.02 -0.01,0 -0.01,-0.01 -0.02,-0.01 -0.02,0 -0.03,0.02 -0.03,0.03l0 0.01c0,0 0,0.01 0.01,0.02l0 0c0,0 0,0 0,0 0,0 0,0 0,0 0,0 0,0 0,0l-0.06 0c0,0 0,0 0,0z"/>
  <path class="fil0" d="M0.33 0.16l0 0c0,-0.01 0,-0.01 0,-0.02 0,-0.02 -0.01,-0.03 -0.03,-0.04 0,-0.01 -0.01,-0.02 -0.01,-0.02 0,-0.01 0,-0.01 0,-0.02 0,-0.01 -0.02,-0.03 -0.03,-0.03 0,0 0,0 0,0 -0.01,-0.02 -0.02,-0.03 -0.04,-0.03 0,0 0,0 0,0 -0.02,0 -0.04,0.02 -0.04,0.04l0 0.12 0 0 0.05 0c0,0 0.01,0 0.01,0 0,0 0,0 0,0 0,0.01 0,0.01 0,0.01l0 0c-0.01,0.01 -0.01,0.01 -0.01,0.02l0 0c0,0.01 0,0.01 0.01,0.02 0,0 0.01,0 0.01,0 0.01,0 0.02,-0.01 0.02,-0.02l0 0c0,-0.01 0,-0.01 0,-0.02l0 0c-0.01,0 -0.01,0 -0.01,0 0,0 0,0 0,-0.01 0,0 0.01,0 0.01,0l0.06 0 0 0z"/>
  <path class="fil0" d="M0.16 0.26c0,0.01 0,0.01 0,0.01 0,0.03 -0.02,0.05 -0.05,0.05l0 0c-0.02,0 -0.05,-0.02 -0.05,-0.05 0,0 0,0 0,0 -0.02,0 -0.04,-0.01 -0.04,-0.03 0,-0.01 0,-0.01 0,-0.02 -0.01,0 -0.02,-0.02 -0.02,-0.03 0,-0.02 0.01,-0.03 0.01,-0.03l0 0 0.06 0c0,0 0.01,-0.01 0.01,-0.01 0,0 0,0 0,0 0,0 -0.01,-0.01 -0.01,-0.01l0 0c0,0 0,-0.01 0,-0.01l0 -0.01c0,-0.01 0.01,-0.02 0.02,-0.02 0,0 0.01,0 0.01,0.01 0.01,0 0.01,0.01 0.01,0.01l0 0.01c0,0 0,0.01 -0.01,0.01l0 0c0,0.01 0,0.01 0,0.01 0,0 0,0 0,0 0,0.01 0,0.01 0.01,0.01l0.05 0 0 0 0 0.1c0,0 0,0 0,0z"/>
  <path class="fil0" d="M0.21 0.31l0 0 0 0zm0 0c-0.01,0 -0.02,-0.01 -0.02,-0.01 0,0 0.01,0.01 0.02,0.01zm0.04 0c0.01,-0.01 0.02,-0.02 0.03,-0.03 -0.01,0.01 -0.02,0.02 -0.03,0.03zm0.07 -0.06c0,-0.01 0,-0.01 0,-0.01 0,-0.01 0,-0.01 0,-0.01 0,0 0,0 0,0.01 0,0 0,0 0,0.01zm0.02 -0.08c0,0 0,0 0,0 0,0 0,0 0,0zm0 0c0,0 0,0 0,0 0,0 0,0 0,0zm0 0c0,0 0,0 0,0 0,0 0,0 0,0zm0 0c0,0 0,0 0,0 0,0 0,0 0,0zm0 0c-0.01,0 -0.01,-0.01 -0.01,-0.01 0,0 0,0.01 0.01,0.01zm-0.01 -0.01c0,0 0,0 0,0 0,0 0,0 0,0z"/>
  <polygon class="fil0" points="0.4,0.25 0.4,0.05 0.44,0.05 0.44,0.25 "/>
  <path id="_1" class="fil0" d="M0.49 0.25l0 -0.15 0.03 0 0 0.02c0.01,-0.01 0.01,-0.01 0.02,-0.02 0.01,0 0.02,0 0.02,0 0.02,0 0.03,0 0.03,0.01 0.01,0.01 0.01,0.02 0.01,0.04l0 0.1 -0.03 0 0 -0.1c0,-0.01 0,-0.01 0,-0.02 -0.01,0 -0.01,0 -0.02,0 0,0 -0.01,0 -0.01,0 -0.01,0 -0.01,0.01 -0.02,0.01l0 0.11 -0.03 0z"/>
  <path id="_2" class="fil0" d="M0.68 0.2c0,0.01 0,0.02 0,0.02 0,0 0.01,0 0.01,0 0,0 0.01,0 0.01,0 0,0 0,0 0.01,0l0 0.03c-0.01,0 -0.01,0 -0.02,0 0,0 -0.01,0 -0.01,0 -0.01,0 -0.02,0 -0.03,-0.01 0,0 -0.01,-0.01 -0.01,-0.02l0 -0.09 -0.02 0 0 -0.03 0.02 0 0 -0.04 0.04 0 0 0.04 0.03 0 0 0.03 -0.03 0 0 0.07z"/>
  <path id="_3" class="fil0" d="M0.75 0.16l0.06 0c0,-0.01 -0.01,-0.02 -0.01,-0.03 -0.01,0 -0.01,0 -0.02,0 -0.01,0 -0.01,0 -0.02,0 0,0.01 -0.01,0.02 -0.01,0.03zm0.09 0.06c-0.01,0.01 -0.01,0.02 -0.02,0.02 -0.01,0.01 -0.03,0.01 -0.04,0.01 -0.02,0 -0.03,-0.01 -0.04,-0.02 -0.02,-0.01 -0.02,-0.03 -0.02,-0.05 0,-0.03 0,-0.05 0.02,-0.06 0.01,-0.01 0.02,-0.02 0.04,-0.02 0.02,0 0.03,0.01 0.04,0.02 0.01,0.01 0.02,0.03 0.02,0.05 0,0 0,0.01 0,0.01 0,0 0,0 0,0l-0.09 0c0,0.02 0.01,0.03 0.01,0.03 0.01,0.01 0.01,0.01 0.02,0.01 0.01,0 0.02,0 0.02,0 0,0 0.01,-0.01 0.01,-0.02l0.03 0.02z"/>
  <polygon id="_4" class="fil0" points="0.87,0.25 0.87,0.05 0.9,0.05 0.9,0.25 "/>
  <polygon id="_5" class="fil0" points="0.94,0.25 0.94,0.05 0.97,0.05 0.97,0.25 "/>
  <path id="_6" class="fil0" d="M1.01 0.08l0 -0.03 0.03 0 0 0.03 -0.03 0zm0 0.17l0 -0.15 0.03 0 0 0.15 -0.03 0z"/>
  <path id="_7" class="fil0" d="M1.11 0.25c0,0 -0.01,0 -0.01,0 0,0 0,0.01 0,0.01 0,0.01 0,0.01 0.01,0.01 0,0 0.01,0.01 0.02,0.01 0.01,0 0.02,-0.01 0.02,-0.01 0.01,0 0.01,-0.01 0.01,-0.01 0,-0.01 0,-0.01 0,-0.01 0,0 -0.01,0 -0.02,0l-0.03 0zm0 -0.1c0,0.01 0,0.01 0,0.02 0.01,0 0.01,0 0.02,0 0.01,0 0.01,0 0.02,0 0,-0.01 0,-0.01 0,-0.02 0,-0.01 0,-0.01 0,-0.02 -0.01,0 -0.01,0 -0.02,0 -0.01,0 -0.01,0 -0.02,0 0,0.01 0,0.01 0,0.02zm-0.02 0.09c-0.01,-0.01 -0.01,-0.01 -0.01,-0.01 -0.01,-0.01 -0.01,-0.01 -0.01,-0.01 0,-0.01 0,-0.01 0.01,-0.02 0,0 0.01,-0.01 0.01,-0.01 0,-0.01 -0.01,-0.01 -0.01,-0.02 -0.01,0 -0.01,-0.01 -0.01,-0.02 0,-0.01 0.01,-0.03 0.02,-0.04 0.01,-0.01 0.02,-0.01 0.04,-0.01 0.01,0 0.01,0 0.02,0 0,0 0.01,0.01 0.01,0.01 0.01,0 0.01,-0.01 0.02,-0.01 0,0 0.01,0 0.01,0 0,0 0,0 0,0 0,0 0.01,0 0.01,0l0 0.02c0,0 0,0 0,0 -0.01,0 -0.01,0 -0.01,0 0,0 -0.01,0 -0.01,0 0,0 0,0.01 0,0.01 0,0 0,0 0,0.01 0,0 0,0.01 0,0.01 0,0.02 0,0.03 -0.01,0.04 -0.01,0.01 -0.02,0.01 -0.04,0.01 0,0 -0.01,0 -0.01,0 0,0 0,0 -0.01,0 0,0 0,0 0,0 -0.01,0 -0.01,0.01 -0.01,0.01 0,0 0.01,0.01 0.03,0.01 0.01,0 0.01,0 0.01,0 0.02,0 0.04,0 0.04,0.01 0.01,0 0.02,0.01 0.02,0.03 0,0.01 -0.01,0.02 -0.02,0.03 -0.01,0.01 -0.03,0.01 -0.05,0.01 -0.02,0 -0.04,0 -0.05,-0.01 -0.01,0 -0.01,-0.01 -0.01,-0.03 0,0 0,-0.01 0,-0.01 0.01,-0.01 0.01,-0.01 0.02,-0.01z"/>
  <path id="_8" class="fil0" d="M1.24 0.16l0.05 0c0,-0.01 0,-0.02 0,-0.03 -0.01,0 -0.01,0 -0.02,0 -0.01,0 -0.02,0 -0.02,0 0,0.01 -0.01,0.02 -0.01,0.03zm0.09 0.06c-0.01,0.01 -0.02,0.02 -0.03,0.02 -0.01,0.01 -0.02,0.01 -0.03,0.01 -0.02,0 -0.04,-0.01 -0.05,-0.02 -0.01,-0.01 -0.01,-0.03 -0.01,-0.05 0,-0.03 0,-0.05 0.01,-0.06 0.01,-0.01 0.03,-0.02 0.05,-0.02 0.02,0 0.03,0.01 0.04,0.02 0.01,0.01 0.02,0.03 0.02,0.05 0,0 0,0.01 0,0.01 0,0 0,0 0,0l-0.09 0c0,0.02 0,0.03 0.01,0.03 0,0.01 0.01,0.01 0.02,0.01 0.01,0 0.01,0 0.02,0 0,0 0.01,-0.01 0.01,-0.02l0.03 0.02z"/>
  <path id="_9" class="fil0" d="M1.35 0.25l0 -0.15 0.04 0 0 0.02c0.01,-0.01 0.01,-0.01 0.02,-0.02 0.01,0 0.01,0 0.02,0 0.01,0 0.02,0 0.03,0.01 0.01,0.01 0.01,0.02 0.01,0.04l0 0.1 -0.03 0 0 -0.1c0,-0.01 0,-0.01 -0.01,-0.02 0,0 0,0 -0.01,0 0,0 -0.01,0 -0.01,0 -0.01,0 -0.02,0.01 -0.02,0.01l0 0.11 -0.04 0z"/>
  <path id="_10" class="fil0" d="M1.55 0.2c0,0.01 0,0.02 0,0.02 0,0 0,0 0.01,0 0,0 0,0 0.01,0 0,0 0,0 0,0l0 0.03c0,0 0,0 -0.01,0 0,0 -0.01,0 -0.01,0 -0.02,0 -0.02,0 -0.03,-0.01 -0.01,0 -0.01,-0.01 -0.01,-0.02l0 -0.09 -0.02 0 0 -0.03 0.02 0 0 -0.04 0.04 0 0 0.04 0.02 0 0 0.03 -0.02 0 0 0.07z"/>
  <path id="_11" class="fil1" d="M1.79 0.19l0.04 0.01c-0.01,0.02 -0.02,0.03 -0.03,0.04 -0.01,0.01 -0.03,0.01 -0.05,0.01 -0.02,0 -0.04,-0.01 -0.06,-0.02 -0.01,-0.02 -0.02,-0.05 -0.02,-0.08 0,-0.04 0.01,-0.06 0.02,-0.08 0.02,-0.02 0.04,-0.03 0.07,-0.03 0.01,0 0.03,0.01 0.04,0.02 0.01,0.01 0.02,0.02 0.02,0.04l-0.03 0.01c0,-0.01 -0.01,-0.02 -0.01,-0.03 -0.01,0 -0.02,0 -0.03,0 -0.01,0 -0.02,0 -0.03,0.01 0,0.02 -0.01,0.03 -0.01,0.06 0,0.02 0.01,0.04 0.01,0.05 0.01,0.01 0.02,0.02 0.03,0.02 0.01,0 0.02,0 0.03,-0.01 0.01,-0.01 0.01,-0.01 0.01,-0.02z"/>
  <path id="_12" class="fil1" d="M1.92 0.18c-0.01,0 -0.02,0 -0.03,0.01 -0.01,0 -0.01,0.01 -0.01,0.02 0,0 0,0.01 0,0.01 0,0 0.01,0 0.01,0 0.01,0 0.01,0 0.02,0 0,0 0.01,-0.01 0.01,-0.01l0 -0.03zm0.01 0.07l0 -0.01c-0.01,0 -0.02,0 -0.03,0.01 0,0 -0.01,0 -0.02,0 -0.01,0 -0.02,0 -0.03,-0.01 0,-0.01 -0.01,-0.02 -0.01,-0.03 0,-0.01 0.01,-0.03 0.02,-0.04 0.02,-0.01 0.04,-0.01 0.07,-0.02l0 -0.01c0,0 -0.01,-0.01 -0.01,-0.01 0,0 -0.01,0 -0.01,0 -0.01,0 -0.02,0 -0.02,0 -0.01,0 -0.01,0.01 -0.02,0.01l-0.02 -0.01c0.01,-0.01 0.01,-0.02 0.02,-0.02 0.01,-0.01 0.02,-0.01 0.04,-0.01 0.01,0 0.03,0 0.04,0.01 0,0.01 0.01,0.02 0.01,0.03l0 0.09c0,0 0,0 0,0.01 0,0 0,0 0,0.01l-0.03 0z"/>
  <path id="_13" class="fil1" d="M2 0.25l0 -0.15 0.03 0 0 0.03c0,-0.01 0.01,-0.02 0.01,-0.02 0.01,-0.01 0.02,-0.01 0.02,-0.01 0.01,0 0.01,0 0.01,0 0,0 0,0 0,0l0 0.04 0 0c-0.01,0 -0.02,0 -0.02,0 -0.01,0.01 -0.02,0.01 -0.02,0.02l0 0.09 -0.03 0z"/>
  <path id="_14" class="fil1" d="M2.11 0.16l0.06 0c0,-0.01 0,-0.02 -0.01,-0.03 0,0 -0.01,0 -0.02,0 -0.01,0 -0.01,0 -0.02,0 0,0.01 0,0.02 -0.01,0.03zm0.09 0.06c-0.01,0.01 -0.01,0.02 -0.02,0.02 -0.01,0.01 -0.02,0.01 -0.04,0.01 -0.02,0 -0.03,-0.01 -0.04,-0.02 -0.01,-0.01 -0.02,-0.03 -0.02,-0.05 0,-0.03 0.01,-0.05 0.02,-0.06 0.01,-0.01 0.02,-0.02 0.04,-0.02 0.02,0 0.04,0.01 0.05,0.02 0.01,0.01 0.01,0.03 0.01,0.05 0,0 0,0.01 0,0.01 0,0 0,0 0,0l-0.09 0c0,0.02 0.01,0.03 0.01,0.03 0.01,0.01 0.02,0.01 0.03,0.01 0,0 0.01,0 0.01,0 0.01,0 0.01,-0.01 0.01,-0.02l0.03 0.02z"/>
  <path class="fil2" d="M0.09 0.19c0.01,0 0.01,0 0.01,0.01 0,0.01 0,0.02 0,0.03 0,0 0,0.01 0,0.02l0 0.01c-0.01,0 -0.01,0 -0.01,-0.01l0 -0.06z"/>
  <path class="fil2" d="M0.24 0.06c0.01,0 0.02,0 0.03,0.01 0,0 0,0 0,0.01 0,0 0,0 0,0 -0.01,0 -0.01,0 -0.01,0 0,0 0,0 0,0 0,0 0,0 -0.01,0 0,0 0,0 0,0 0,0 0,-0.01 -0.01,-0.01 -0.01,0 -0.02,0.01 -0.02,0.03 0,0.01 0.01,0.02 0.02,0.02 0.01,0 0.01,0 0.01,-0.01 0,0 0,0 0.01,0 0,0 0,0 0,0 0,0 0,0 0,0 0.01,0 0.01,0.01 0.01,0.01 0,0 0,0 0,0 0,0 0,0 0,0 -0.01,0.01 -0.02,0.01 -0.03,0.01 -0.02,0 -0.04,-0.01 -0.04,-0.03 0,-0.03 0.02,-0.04 0.04,-0.04z"/>
 </g>
</svg>
